<svg preserveAspectRatio="none" overflow="visible" style="display: block;" width="23.8208" height="41.3231" viewBox="0 0 23.8208 41.3231" fill="none" xmlns="http://www.w3.org/2000/svg">
<g id="Group">
<path id="Vector" d="M11.9099 40.8554C15.4883 40.6843 18.9267 39.3774 20.887 36.2502C22.8473 33.123 23.5941 29.0623 23.3141 25.2506C22.6762 16.0713 17.6042 7.80989 11.9099 0.8554C6.21565 7.80989 1.14369 16.0713 0.505809 25.2506C0.241321 29.0623 0.894759 32.983 2.93288 36.2502C4.97099 39.5174 8.33155 40.6843 11.9099 40.8554Z" stroke="white" stroke-width="0.9" stroke-miterlimit="10"/>
<path id="Vector_2" d="M9.14089 9.50615L11.9102 1.33812L14.9752 9.50615L19.1448 12.2288V19.4322L22.7543 23.0262L20.4205 28.5182L21.3696 35.426L16.5777 35.9394L12.1436 40.6536L8.0985 36.0328L2.97986 35.9394L3.55551 28.8294L0.92619 23.2129L5.06466 19.3078L4.50456 12.0266L9.14089 9.50615Z" stroke="white" stroke-width="0.9" stroke-miterlimit="10"/>
<path id="Vector_3" d="M12.1105 13.1773L9.37225 9.78565V16.6157L12.1105 13.1773Z" stroke="white" stroke-width="0.9" stroke-miterlimit="10"/>
<path id="Vector_4" d="M11.9825 13.1773L14.7051 9.78565V16.6157L11.9825 13.1773Z" stroke="white" stroke-width="0.9" stroke-miterlimit="10"/>
<path id="Vector_5" d="M9.37355 16.6155L5.25064 19.3693L6.19969 24.1768L3.7415 28.5953L7.10206 31.9092L8.06667 35.8143L11.9095 34.6008L16.577 35.9388L17.1526 31.7069L20.4509 28.782L17.8839 24.0368L19.1441 19.4316L14.71 16.6155L17.8839 24.0368L17.1526 31.7069L11.9095 34.6008L7.10206 31.9092L6.19969 24.1768L9.37355 16.6155Z" stroke="white" stroke-width="0.9" stroke-miterlimit="10"/>
</g>
</svg>
