<svg preserveAspectRatio="none" overflow="visible" style="display: block;" width="26" height="26" viewBox="0 0 26 26" fill="none" xmlns="http://www.w3.org/2000/svg">
<g id="arrow-left">
<path id="Vector" d="M10.3675 20.3883C10.1617 20.3883 9.95583 20.3125 9.79333 20.15L3.2175 13.5742C2.90333 13.26 2.90333 12.74 3.2175 12.4258L9.79333 5.85C10.1075 5.53583 10.6275 5.53583 10.9417 5.85C11.2558 6.16417 11.2558 6.68417 10.9417 6.99833L4.94 13L10.9417 19.0017C11.2558 19.3158 11.2558 19.8358 10.9417 20.15C10.79 20.3125 10.5733 20.3883 10.3675 20.3883Z" fill="#202020"/>
<path id="Vector_2" d="M22.2083 13.8125H3.97583C3.53167 13.8125 3.16333 13.4442 3.16333 13C3.16333 12.5558 3.53167 12.1875 3.97583 12.1875H22.2083C22.6525 12.1875 23.0208 12.5558 23.0208 13C23.0208 13.4442 22.6525 13.8125 22.2083 13.8125Z" fill="#202020"/>
<g id="Vector_3" opacity="0">
</g>
</g>
</svg>
