<svg preserveAspectRatio="none" overflow="visible" style="display: block;" width="20" height="20" viewBox="0 0 20 20" fill="none" xmlns="http://www.w3.org/2000/svg">
<g id="note">
<path id="Vector" d="M13.175 16.8167C12.9583 16.8167 12.7333 16.8083 12.4917 16.7833C12.0583 16.75 11.5667 16.6667 11.0583 16.5417L9.65833 16.2083C5.81667 15.3 4.55833 13.2667 5.45833 9.43333L6.275 5.94167C6.45833 5.15 6.675 4.50833 6.94167 3.975C8.375 1.01667 11.1167 1.28333 13.0667 1.74167L14.4583 2.06667C16.4083 2.525 17.6417 3.25 18.3333 4.35833C19.0167 5.46667 19.125 6.89167 18.6667 8.84167L17.85 12.325C17.1333 15.375 15.6417 16.8167 13.175 16.8167ZM10.9333 2.70833C9.54167 2.70833 8.65833 3.28333 8.06667 4.51667C7.85 4.96667 7.65833 5.525 7.49167 6.225L6.675 9.71667C5.93333 12.8667 6.79167 14.2417 9.94167 14.9917L11.3417 15.325C11.7917 15.4333 12.2167 15.5 12.6 15.5333C14.8583 15.7583 15.9917 14.7667 16.625 12.0417L17.4417 8.55833C17.8167 6.95 17.7667 5.825 17.2667 5.01667C16.7667 4.20833 15.7833 3.65833 14.1667 3.28333L12.775 2.95833C12.0833 2.79167 11.4667 2.70833 10.9333 2.70833Z" fill="white"/>
<path id="Vector_2" d="M6.94167 18.5417C4.8 18.5417 3.43333 17.2583 2.55833 14.55L1.49167 11.2583C0.308333 7.59167 1.36667 5.525 5.01667 4.34167L6.33333 3.91667C6.76667 3.78333 7.09167 3.69167 7.38333 3.64167C7.61667 3.59167 7.85833 3.68333 8 3.875C8.14167 4.06667 8.16667 4.31667 8.06667 4.53333C7.85 4.975 7.65833 5.53333 7.5 6.23333L6.68333 9.725C5.94167 12.875 6.8 14.25 9.95 15L11.35 15.3333C11.8 15.4417 12.225 15.5083 12.6083 15.5417C12.875 15.5667 13.0917 15.75 13.1667 16.0083C13.2333 16.2667 13.1333 16.5333 12.9167 16.6833C12.3667 17.0583 11.675 17.375 10.8 17.6583L9.48333 18.0917C8.525 18.3917 7.69167 18.5417 6.94167 18.5417ZM6.48333 5.18333L5.40833 5.53333C2.43333 6.49167 1.725 7.89167 2.68333 10.875L3.75 14.1667C4.71667 17.1417 6.11667 17.8583 9.09167 16.9L10.4083 16.4667C10.4583 16.45 10.5 16.4333 10.55 16.4167L9.66667 16.2083C5.825 15.3 4.56667 13.2667 5.46667 9.43333L6.28333 5.94167C6.34167 5.675 6.40833 5.41667 6.48333 5.18333Z" fill="white"/>
<g id="Vector_3" opacity="0">
</g>
</g>
</svg>
