<svg preserveAspectRatio="none" overflow="visible" style="display: block;" width="7.38586" height="5.73022" viewBox="0 0 7.38586 5.73022" fill="none" xmlns="http://www.w3.org/2000/svg">
<g id="Group">
<path id="Vector" d="M6.30543 1.98924C6.28758 1.94983 5.44362 1.20262 5.44362 1.20262L4.32967 0.599377L3.11643 0.222763C3.11643 0.222763 1.98296 0.137367 1.94169 0.1516C1.90041 0.165832 0.296705 0.426397 0.296705 0.426397L0.150001 3.51431L5.0565 5.58022L7.23586 3.34845C7.23586 3.34845 6.32328 2.02865 6.30543 1.98924Z" fill="white" stroke="#202020" stroke-width="0.3" stroke-linecap="round" stroke-linejoin="round"/>
<path id="Vector_2" d="M1.94112 0.151602L1.94614 0.918517" stroke="#202020" stroke-width="0.3" stroke-linecap="round" stroke-linejoin="round"/>
<path id="Vector_3" d="M3.11586 0.222764L3.02884 0.783854" stroke="#202020" stroke-width="0.3" stroke-linecap="round" stroke-linejoin="round"/>
<path id="Vector_4" d="M0.952665 1.67831L1.94612 0.918517L3.02883 0.783855L5.08882 1.65149L5.73533 2.5142L5.85916 3.74422" stroke="#202020" stroke-width="0.3" stroke-linecap="round" stroke-linejoin="round"/>
<path id="Vector_5" d="M6.30542 1.98924L5.73534 2.5142" stroke="#202020" stroke-width="0.3" stroke-linecap="round" stroke-linejoin="round"/>
<path id="Vector_6" d="M5.44304 1.20317L5.08883 1.65149" stroke="#202020" stroke-width="0.3" stroke-linecap="round" stroke-linejoin="round"/>
<path id="Vector_7" d="M1.94612 0.918516L5.73532 2.5142" stroke="#202020" stroke-width="0.3" stroke-linecap="round" stroke-linejoin="round"/>
</g>
</svg>
