<svg preserveAspectRatio="none" overflow="visible" style="display: block;" width="16.8999" height="26.6026" viewBox="0 0 16.8999 26.6026" fill="none" xmlns="http://www.w3.org/2000/svg">
<g id="Group">
<path id="Vector" d="M8.44962 26.0946C10.9475 25.9869 13.3477 25.1643 14.7161 23.196C16.0845 21.2276 16.6058 18.6717 16.4103 16.2725C15.965 10.4948 12.4245 5.29493 8.44962 0.917604C4.47471 5.29493 0.934219 10.4948 0.488942 16.2725C0.304315 18.6717 0.76045 21.1395 2.18316 23.196C3.60588 25.2524 5.95173 25.9869 8.44962 26.0946Z" stroke="#404040" stroke-width="0.9" stroke-miterlimit="10"/>
<path id="Vector_2" d="M6.51044 6.36334L8.44359 1.22218L10.5831 6.36334L13.4937 8.07706V12.6111L16.0133 14.8732L14.3842 18.33L15.0467 22.6779L11.7017 23.0011L8.6065 25.9683L5.78279 23.0599L2.20971 23.0011L2.61155 18.5258L0.77614 14.9907L3.66501 12.5327L3.27403 7.94975L6.51044 6.36334Z" stroke="#404040" stroke-width="0.9" stroke-miterlimit="10"/>
<path id="Vector_3" d="M8.59382 8.67312L6.68239 6.53831V10.8373L8.59382 8.67312Z" stroke="#404040" stroke-width="0.9" stroke-miterlimit="10"/>
<path id="Vector_4" d="M8.49489 8.67312L10.3955 6.53831V10.8373L8.49489 8.67312Z" stroke="#404040" stroke-width="0.9" stroke-miterlimit="10"/>
<path id="Vector_5" d="M6.67636 10.8377L3.79835 12.571L4.46084 15.597L2.74489 18.3781L5.09074 20.4639L5.76409 22.9219L8.4466 22.1581L11.7047 23.0003L12.1066 20.3366L14.409 18.4956L12.617 15.5089L13.4967 12.6102L10.4015 10.8377L12.617 15.5089L12.1066 20.3366L8.4466 22.1581L5.09074 20.4639L4.46084 15.597L6.67636 10.8377Z" stroke="#404040" stroke-width="0.9" stroke-miterlimit="10"/>
</g>
</svg>
